<svg width="250" height="28" viewBox="0 0 250 28" fill="none" xmlns="http://www.w3.org/2000/svg">
<path d="M248.462 24.2791V13.3011C248.462 9.96828 246.821 7.77822 243.474 7.77822C240.709 7.77822 238.827 9.59556 237.599 11.3821V7.71045L231.824 10.4704V11.0094C233.396 10.8061 233.396 11.3113 233.396 13.6707V24.2791C233.396 26.0626 232.815 26.3337 231.962 26.3337V26.9066H239.443V26.3337C238.112 26.3337 237.599 26.0657 237.599 24.2791V13.0331C238.418 11.8873 239.58 10.609 241.493 10.609C243.405 10.609 244.259 11.6871 244.259 13.7416V24.2822C244.259 26.0657 243.677 26.3367 242.449 26.3367V26.9097H249.999V26.3367C249.043 26.3367 248.462 26.0688 248.462 24.2822V24.2791Z" fill="#313A44"/>
<path d="M222.259 7.87988C217.305 7.87988 213.512 11.8873 213.512 17.5118C213.512 23.1364 217.371 27.1438 222.259 27.1438C227.146 27.1438 231.005 23.2042 231.005 17.5796C231.005 11.9551 227.146 7.88296 222.259 7.88296V7.87988ZM222.977 25.8624C219.459 25.8624 217.818 19.936 217.818 14.7488C217.818 10.9786 219.562 9.19207 221.577 9.19207C225.13 9.19207 226.702 14.9152 226.702 20.1701C226.702 23.9403 224.993 25.8624 222.977 25.8624Z" fill="#313A44"/>
<path d="M211.19 24.2786V7.34025H210.574C209.993 8.08259 209.209 8.55387 207.396 8.55387H200.359V2.62746H199.505C198.652 6.12971 196.671 8.88961 194.484 9.56419V10.0694H196.159V22.529C196.159 22.7323 196.159 22.9664 196.193 23.1358C195.543 24.2478 194.724 25.0548 193.734 25.0548C192.915 25.0548 192.334 24.6513 192.334 23.1358V13.3375C192.334 9.39786 189.737 7.78072 185.912 7.78072C181.23 7.78072 178.327 10.171 178.327 12.629C178.327 13.8088 179.112 14.6158 180.377 14.6158C181.709 14.6158 182.324 13.7749 182.53 12.4596C182.802 10.5406 183.18 9.05903 185.468 9.05903C187.346 9.05903 188.371 10.2726 188.371 12.2902C188.371 14.1414 187.618 15.0501 186.527 15.5553C185.434 16.1282 184.068 16.4301 182.702 16.9014C180.002 17.7761 177.921 19.19 177.921 22.4243C177.921 22.9972 178.002 23.5301 178.152 24.0167C177.665 24.642 177.09 25.0486 176.418 25.0486C175.668 25.0486 175.121 24.6451 175.121 23.1296V0L169.28 2.52581V3.06485C170.921 2.89544 170.921 3.36672 170.921 5.48901V8.62163C170.034 8.11647 168.871 7.78072 167.368 7.78072C162.755 7.78072 158.418 11.6865 158.418 18.2536C158.418 23.9767 161.321 27.1432 165.149 27.1432C167.643 27.1432 169.693 25.56 170.955 23.7765C171.024 25.7633 172.152 27.2449 174.44 27.2449C176.34 27.2449 177.609 26.2992 178.518 24.8854C179.349 26.4101 180.99 27.3126 182.98 27.3126C185.405 27.3126 187.08 25.7632 188.209 24.18C188.38 25.8988 189.574 27.2449 191.796 27.2449C194.018 27.2449 195.384 26.099 196.409 24.4172C196.99 26.3701 198.527 27.2787 200.543 27.2787C203.79 27.2787 204.915 24.6513 205.155 21.5864L204.574 21.5187C204.096 23.8412 203.343 24.8515 202.218 24.8515C201.093 24.8515 200.374 24.0784 200.374 22.2918V10.0694H205.499C207.002 10.0694 207.002 10.4729 207.002 12.8293V24.2786C207.002 26.062 206.421 26.3331 205.534 26.3331V26.906H212.777V26.3331C211.752 26.3331 211.205 26.0651 211.205 24.2786H211.19ZM170.912 22.0885C169.955 23.3668 168.896 24.411 167.121 24.411C163.943 24.411 162.577 20.4375 162.577 15.6569C162.577 11.1444 164.524 9.08983 166.88 9.08983C169.237 9.08983 170.912 11.0427 170.912 13.972V22.0885ZM188.165 22.6276C187.174 23.9397 186.184 24.7498 184.852 24.7498C183.143 24.7498 182.152 23.5701 182.152 21.6511C182.152 20.034 182.937 18.9898 184.237 18.2166C185.227 17.6776 186.149 17.4096 186.971 16.9044C187.587 16.5009 187.996 16.0635 188.168 15.6908V22.6276H188.165Z" fill="#313A44"/>
<path d="M209.04 6.29646C210.577 6.29646 211.602 5.25225 211.602 3.83841C211.602 2.42458 210.577 1.38037 209.04 1.38037C207.502 1.38037 206.512 2.45846 206.512 3.83841C206.512 5.21837 207.571 6.29646 209.04 6.29646Z" fill="#313A44"/>
<path d="M156.086 24.2791V13.3011C156.086 9.96828 154.445 7.77822 151.098 7.77822C148.333 7.77822 146.452 9.59556 145.223 11.3821V7.71045L139.448 10.4704V11.0094C141.02 10.8061 141.02 11.3113 141.02 13.6707V23.6384C141.02 25.3233 140.236 25.9948 138.97 25.9948C137.705 25.9948 136.886 25.3203 136.886 23.6384V7.71045L131.08 10.4057V10.9447C132.686 10.7075 132.686 11.416 132.686 13.6707V22.3263C131.902 23.3705 130.705 24.4824 128.995 24.4824C127.286 24.4824 126.364 23.4382 126.364 21.3159V7.71045L120.523 10.4057V10.9447C122.13 10.7075 122.13 11.416 122.13 13.6707V21.7533C122.13 25.12 123.736 27.3101 127.117 27.3101C129.645 27.3101 131.523 25.6591 132.755 23.9773C132.927 25.6961 133.952 26.9066 137.127 26.9066H147.067V26.3337C145.736 26.3337 145.223 26.0657 145.223 24.2791V13.0331C146.042 11.8873 147.205 10.609 149.117 10.609C151.03 10.609 151.883 11.6871 151.883 13.7416V24.2822C151.883 26.0657 151.302 26.3367 150.073 26.3367V26.9097H157.623V26.3367C156.667 26.3367 156.086 26.0688 156.086 24.2822V24.2791Z" fill="#313A44"/>
<path d="M111.063 7.87988C106.11 7.87988 102.316 11.8873 102.316 17.5118C102.316 23.1364 106.176 27.1438 111.063 27.1438C115.951 27.1438 119.81 23.2042 119.81 17.5796C119.81 11.9551 115.951 7.88296 111.063 7.88296V7.87988ZM111.779 25.8624C108.26 25.8624 106.62 19.936 106.62 14.7488C106.62 10.9786 108.363 9.19207 110.379 9.19207C113.932 9.19207 115.504 14.9152 115.504 20.1701C115.504 23.9403 113.795 25.8624 111.779 25.8624Z" fill="#313A44"/>
<path d="M97.0922 3.03083C101.02 3.03083 102.32 4.00727 102.455 8.01469H103.173V1.65088H85.8516V2.22381C87.4234 2.22381 88.0391 2.39322 88.0391 4.81738V23.7086C88.0391 26.0989 87.4234 26.3022 85.8516 26.3022V26.909H94.9047V26.3022C93.1297 26.3022 92.4109 26.0989 92.4109 23.7086V14.6834H96.2016C98.5922 14.6834 99.4141 15.626 99.5141 18.084H100.198V9.869H99.5141C99.4109 12.4626 98.5922 13.2696 96.2016 13.2696H92.4109V3.03391H97.0922V3.03083Z" fill="#313A44"/>
<path d="M74.8844 16.1619L72.2531 14.477C70.6125 13.4328 69.6219 12.6935 69.6219 11.3444C69.6219 9.99522 70.6469 9.12043 72.2531 9.12043C74.3719 9.12043 76.4563 10.7037 77.0031 13.7347H77.6188V8.17787H77.0031C76.9688 8.64915 76.7969 8.88633 76.3531 8.88633C75.7031 8.88633 74.5438 7.87601 72.15 7.87601C69.2125 7.87601 66.5125 9.59479 66.5125 12.9276C66.5125 15.0499 67.7094 16.6979 69.9281 18.1148L72.525 19.7658C74.4031 20.9794 75.1219 21.6509 75.1219 23.1664C75.1219 24.6819 74.0969 25.8277 71.875 25.8277C69.0406 25.8277 66.1688 24.0781 65.725 19.2945H65.2812C64.2219 22.5257 62.275 24.2106 59.5406 24.2106C55.8156 24.2106 53.4937 21.0441 53.4937 15.7245V15.589H65.1437C65.0062 10.8762 62.3094 7.87909 58.0719 7.87909C53.8344 7.87909 49.3937 11.6493 49.3937 18.1148C49.3937 19.5902 49.6562 20.9856 50.1625 22.2208C49.3969 23.9519 48.4375 24.8482 47.1719 24.8482C45.7375 24.8482 44.9844 24.0751 44.9844 22.2546V9.69336H49.4938V8.17787H44.9844V2.62109H44.1313C43.2781 6.0217 41.2969 8.51362 39.1094 9.1882V9.69336H40.7844V22.5226C40.7844 22.7259 40.7844 22.9261 40.8187 23.0955C40.1344 24.2414 39.3156 25.0484 38.3594 25.0484C37.5406 25.0484 36.9594 24.6449 36.9594 23.1294V13.3311C36.9594 9.39149 34.3625 7.77436 30.5375 7.77436C25.8563 7.77436 22.9531 10.1646 22.9531 12.6227C22.9531 13.8024 23.7375 14.6094 25.0031 14.6094C26.3344 14.6094 26.95 13.7685 27.1562 12.4533C27.4281 10.5343 27.8063 9.05267 30.0938 9.05267C31.9719 9.05267 32.9969 10.2663 32.9969 12.2839C32.9969 14.1351 32.2438 15.0438 31.1531 15.5489C30.0594 16.1219 28.6937 16.4237 27.3281 16.895C24.6281 17.7698 22.5469 19.1836 22.5469 22.4179C22.5469 25.3811 24.7 27.3001 27.6031 27.3001C30.0281 27.3001 31.7031 25.7507 32.8312 24.1675C33.0031 25.8863 34.1969 27.2323 36.4187 27.2323C38.6406 27.2323 40.0063 26.0865 41.0656 24.4047C41.6813 26.3575 43.3531 27.2662 45.575 27.2662C48.3719 27.2662 49.875 25.5135 50.7062 23.3081C52.0469 25.6152 54.3906 27.1338 57.6 27.1338C61.3594 27.1338 63.8188 25.3503 65.1844 21.5431V26.8966H65.8344C65.8687 26.4931 66.1063 25.954 66.6188 25.954C67.3719 25.954 68.5313 27.1338 71.7781 27.1338C75.9469 27.1338 78.7813 24.7774 78.7813 21.7125C78.7813 19.0851 77.2437 17.6712 74.8875 16.1557L74.8844 16.1619ZM57.4281 9.19128C59.4438 9.19128 60.6406 11.0086 60.8438 14.3445H53.5656C53.9406 10.8762 55.65 9.19128 57.425 9.19128H57.4281ZM32.7969 22.6273C31.8062 23.9395 30.8156 24.7496 29.4844 24.7496C27.775 24.7496 26.7844 23.5699 26.7844 21.6509C26.7844 20.0338 27.5687 18.9896 28.8687 18.2164C29.8594 17.6774 30.7812 17.4094 31.6031 16.9042C32.2187 16.5007 32.6281 16.0633 32.8 15.6906V22.6273H32.7969Z" fill="#313A44"/>
<path d="M13.3563 15.6909C15.0313 15.6909 15.7469 15.8942 15.7469 18.3861V23.37C15.7469 25.1534 14.8938 25.9296 12.9125 25.9635C7.24062 25.9974 4.54375 19.6675 4.54375 11.8529C4.54375 5.59072 7.61875 2.62751 11.4437 2.62751C15.2687 2.62751 18.2406 4.81757 18.8906 9.19462H19.6094V1.65107H18.925C18.8906 2.19012 18.5844 2.55975 18.0375 2.55975C17.1844 2.55975 15.1 1.24756 12.1281 1.24756C5.74063 1.24448 0 6.12668 0 14.4803C0 21.6542 4.57812 27.3096 12.4 27.2757C16.125 27.2757 18.7875 26.1637 20.1219 25.021V18.3861C20.1219 15.8942 20.7031 15.6909 22.0688 15.6909V15.0841H13.3563V15.6909Z" fill="#313A44"/>
</svg>
